<?xml version="1.0" encoding="UTF-8"?>
<svg width="358px" height="408px" viewBox="0 0 358 408" version="1.1" xmlns="http://www.w3.org/2000/svg" xmlns:xlink="http://www.w3.org/1999/xlink">
    <!-- Generator: Sketch 43.1 (39012) - http://www.bohemiancoding.com/sketch -->
    <title>logo</title>
    <desc>Created with Sketch.</desc>
    <defs></defs>
    <g id="Page-1" stroke="none" stroke-width="1" fill="none" fill-rule="evenodd">
        <g id="logo">
            <g id="Title" transform="translate(94.000000, 376.000000)">
                <path d="M0,2.99610022 C0,1.34139976 1.33412242,0 3.00972645,0 L117,0 L117,32 L3.00972645,32 C1.34750043,32 0,30.6657405 0,29.0038998 L0,2.99610022 Z" id="Rectangle" fill="#333333"></path>
                <path d="M12.9661754,13.1415675 L16.7048149,13.1415675 L16.7048149,20.8649141 L19.6020621,20.8649141 L19.6020621,22 L12.3470376,22 L12.3470376,20.8649141 L15.2442848,20.8649141 L15.2442848,14.2766533 L12.9661754,14.2766533 L12.9661754,13.1415675 Z M15.2442848,9.68868381 L16.7048149,9.68868381 L16.7048149,11.5302218 L15.2442848,11.5302218 L15.2442848,9.68868381 Z M29.5874973,16.4912615 L29.5874973,22 L28.1190295,22 L28.1190295,16.4912615 C28.1190295,15.6921994 27.9787989,15.1048181 27.6983334,14.7291002 C27.4178678,14.3533822 26.9786548,14.1655261 26.3806812,14.1655261 C25.6980387,14.1655261 25.1728352,14.4076224 24.805055,14.8918223 C24.4372747,15.3760222 24.2533874,16.0705608 24.2533874,16.975459 L24.2533874,22 L22.7928573,22 L22.7928573,13.1098168 L24.2533874,13.1098168 L24.2533874,14.4433443 C24.5126857,13.9353313 24.8645852,13.5503584 25.3090966,13.2884142 C25.753608,13.02647 26.2801344,12.8954999 26.8886917,12.8954999 C27.7935898,12.8954999 28.4696074,13.1931593 28.9167647,13.788487 C29.363922,14.3838148 29.5874973,15.2847306 29.5874973,16.4912615 Z M40.4540131,21.5475532 C40.0624197,21.7751007 39.6589259,21.9457587 39.2435194,22.0595325 C38.8281129,22.1733062 38.4034522,22.2301922 37.9695244,22.2301922 C36.5936558,22.2301922 35.5181132,21.8174379 34.7428642,20.9919167 C33.9676151,20.1663956 33.5799964,19.0233835 33.5799964,17.5628461 C33.5799964,16.1023087 33.9676151,14.9592965 34.7428642,14.1337754 C35.5181132,13.3082543 36.5936558,12.8954999 37.9695244,12.8954999 C38.3981604,12.8954999 38.8162065,12.951063 39.2236752,13.0621908 C39.631144,13.1733187 40.0412525,13.3452997 40.4540131,13.578139 L40.4540131,15.110108 C40.0677115,14.7661409 39.6800928,14.5174299 39.2911454,14.3639676 C38.9021979,14.2105054 38.461662,14.1337754 37.9695244,14.1337754 C37.0540426,14.1337754 36.3502435,14.4301119 35.8581059,15.0227937 C35.3659683,15.6154756 35.1199032,16.4621512 35.1199032,17.5628461 C35.1199032,18.6582491 35.3672912,19.5036018 35.8620747,20.0989296 C36.3568582,20.6942573 37.0593344,20.9919167 37.9695244,20.9919167 C38.4775374,20.9919167 38.9326256,20.9138638 39.3348025,20.7577557 C39.7369795,20.6016475 40.110046,20.3595512 40.4540131,20.0314594 L40.4540131,21.5475532 Z M47.708892,14.1337754 C46.9680397,14.1337754 46.4071171,14.4221743 46.0261073,14.9989807 C45.6450976,15.5757872 45.4545955,16.4304004 45.4545955,17.5628461 C45.4545955,18.6899999 45.6450976,19.5432902 46.0261073,20.1227426 C46.4071171,20.7021949 46.9680397,20.9919167 47.708892,20.9919167 C48.4550361,20.9919167 49.0186046,20.7021949 49.3996143,20.1227426 C49.7806241,19.5432902 49.9711261,18.6899999 49.9711261,17.5628461 C49.9711261,16.4304004 49.7806241,15.5757872 49.3996143,14.9989807 C49.0186046,14.4221743 48.4550361,14.1337754 47.708892,14.1337754 Z M47.708892,12.8954999 C48.9418819,12.8954999 49.8851315,13.295025 50.5386691,14.0940871 C51.1922066,14.8931492 51.5189705,16.0493906 51.5189705,17.5628461 C51.5189705,19.0815933 51.1935295,20.2391576 50.5426379,21.0355739 C49.8917462,21.8319901 48.9471737,22.2301922 47.708892,22.2301922 C46.4759021,22.2301922 45.5339754,21.8319901 44.8830838,21.0355739 C44.2321921,20.2391576 43.9067511,19.0815933 43.9067511,17.5628461 C43.9067511,16.0493906 44.2321921,14.8931492 44.8830838,14.0940871 C45.5339754,13.295025 46.4759021,12.8954999 47.708892,12.8954999 Z M60.4169458,17.4834694 C60.4169458,16.3880664 60.2383501,15.555943 59.8811535,14.9870742 C59.5239568,14.4182055 59.004045,14.1337754 58.3214026,14.1337754 C57.6070093,14.1337754 57.0619618,14.4182055 56.6862439,14.9870742 C56.3105259,15.555943 56.1226698,16.3880664 56.1226698,17.4834694 C56.1226698,18.5788725 56.3118489,19.4136417 56.6902127,19.9878023 C57.0685766,20.5619628 57.6175928,20.8490388 58.3372779,20.8490388 C59.0093368,20.8490388 59.5239568,20.5606399 59.8811535,19.9838335 C60.2383501,19.407027 60.4169458,18.5735807 60.4169458,17.4834694 Z M61.8774758,21.4284882 C61.8774758,22.7620224 61.5626183,23.7727414 60.9328939,24.4606757 C60.3031694,25.14861 59.3771179,25.492572 58.1547116,25.492572 C57.7525347,25.492572 57.3318427,25.4555299 56.8926231,25.3814447 C56.4534035,25.3073594 56.0141906,25.1988791 55.574971,25.0560005 L55.574971,23.6113457 C56.0935676,23.8547686 56.5645309,24.0346872 56.9878751,24.1511068 C57.4112193,24.2675265 57.8001609,24.3257354 58.1547116,24.3257354 C58.9431902,24.3257354 59.5173421,24.1114207 59.8771846,23.6827847 C60.2370272,23.2541487 60.4169458,22.5741623 60.4169458,21.6428051 L60.4169458,20.5870959 C60.1841065,21.0845253 59.8666031,21.4549459 59.4644261,21.6983688 C59.0622492,21.9417917 58.5727648,22.0635013 57.9959584,22.0635013 C56.9587651,22.0635013 56.1306105,21.6481011 55.5114697,20.8172881 C54.8923288,19.9864752 54.582763,18.8752134 54.582763,17.4834694 C54.582763,16.0864337 54.8923288,14.972526 55.5114697,14.1417131 C56.1306105,13.3109001 56.9587651,12.8954999 57.9959584,12.8954999 C58.567473,12.8954999 59.0516656,13.0092719 59.4485508,13.2368194 C59.845436,13.4643669 60.168231,13.8162665 60.4169458,14.2925287 L60.4169458,13.1415675 L61.8774758,13.1415675 L61.8774758,21.4284882 Z M72.736054,16.4912615 L72.736054,22 L71.2675862,22 L71.2675862,16.4912615 C71.2675862,15.6921994 71.1273556,15.1048181 70.8468901,14.7291002 C70.5664246,14.3533822 70.1272116,14.1655261 69.5292379,14.1655261 C68.8465954,14.1655261 68.321392,14.4076224 67.9536117,14.8918223 C67.5858314,15.3760222 67.4019441,16.0705608 67.4019441,16.975459 L67.4019441,22 L65.941414,22 L65.941414,13.1098168 L67.4019441,13.1098168 L67.4019441,14.4433443 C67.6612424,13.9353313 68.013142,13.5503584 68.4576533,13.2884142 C68.9021647,13.02647 69.4286911,12.8954999 70.0372484,12.8954999 C70.9421466,12.8954999 71.6181641,13.1931593 72.0653214,13.788487 C72.5124787,14.3838148 72.736054,15.2847306 72.736054,16.4912615 Z M77.6890105,13.1415675 L81.42765,13.1415675 L81.42765,20.8649141 L84.3248972,20.8649141 L84.3248972,22 L77.0698727,22 L77.0698727,20.8649141 L79.9671199,20.8649141 L79.9671199,14.2766533 L77.6890105,14.2766533 L77.6890105,13.1415675 Z M79.9671199,9.68868381 L81.42765,9.68868381 L81.42765,11.5302218 L79.9671199,11.5302218 L79.9671199,9.68868381 Z M90.8415734,10.5856398 L90.8415734,13.1098168 L94.1595168,13.1098168 L94.1595168,14.2449027 L90.8415734,14.2449027 L90.8415734,19.0710021 C90.8415734,19.7271856 90.9659289,20.1849196 91.2146436,20.4442179 C91.4633583,20.7035162 91.8972795,20.8331635 92.5164204,20.8331635 L94.1595168,20.8331635 L94.1595168,22 L92.3735424,22 C91.2781394,22 90.5055479,21.7803935 90.0557447,21.3411739 C89.6059415,20.9019543 89.3810433,20.145238 89.3810433,19.0710021 L89.3810433,14.2449027 L87.0076819,14.2449027 L87.0076819,13.1098168 L89.3810433,13.1098168 L89.3810433,10.5856398 L90.8415734,10.5856398 Z M101.644588,14.1337754 C100.903736,14.1337754 100.342813,14.4221743 99.9618032,14.9989807 C99.5807935,15.5757872 99.3902914,16.4304004 99.3902914,17.5628461 C99.3902914,18.6899999 99.5807935,19.5432902 99.9618032,20.1227426 C100.342813,20.7021949 100.903736,20.9919167 101.644588,20.9919167 C102.390732,20.9919167 102.9543,20.7021949 103.33531,20.1227426 C103.71632,19.5432902 103.906822,18.6899999 103.906822,17.5628461 C103.906822,16.4304004 103.71632,15.5757872 103.33531,14.9989807 C102.9543,14.4221743 102.390732,14.1337754 101.644588,14.1337754 Z M101.644588,12.8954999 C102.877578,12.8954999 103.820827,13.295025 104.474365,14.0940871 C105.127903,14.8931492 105.454666,16.0493906 105.454666,17.5628461 C105.454666,19.0815933 105.129225,20.2391576 104.478334,21.0355739 C103.827442,21.8319901 102.88287,22.2301922 101.644588,22.2301922 C100.411598,22.2301922 99.4696713,21.8319901 98.8187797,21.0355739 C98.167888,20.2391576 97.842447,19.0815933 97.842447,17.5628461 C97.842447,16.0493906 98.167888,14.8931492 98.8187797,14.0940871 C99.4696713,13.295025 100.411598,12.8954999 101.644588,12.8954999 Z" id="incognito" fill="#FFFFFF"></path>
                <path d="M117,0 L174.004063,0 C175.658673,0 177,1.33425951 177,2.99610022 L177,29.0038998 C177,30.6586002 175.66269,32 174.004063,32 L117,32 L117,0 Z" id="Rectangle" fill="#2196F3"></path>
                <path d="M131.132902,18.7852463 C131.132902,19.4414297 131.253288,19.9362058 131.494065,20.2695893 C131.734842,20.6029729 132.090711,20.7696621 132.561681,20.7696621 L134.268279,20.7696621 L134.268279,22 L132.418803,22 C131.545656,22 130.869638,21.7208616 130.39073,21.1625765 C129.911822,20.6042914 129.672372,19.8118559 129.672372,18.7852463 L129.672372,10.7443931 L127.330761,10.7443931 L127.330761,9.60136951 L131.132902,9.60136951 L131.132902,18.7852463 Z M138.721163,13.1415675 L142.459802,13.1415675 L142.459802,20.8649141 L145.357049,20.8649141 L145.357049,22 L138.102025,22 L138.102025,20.8649141 L140.999272,20.8649141 L140.999272,14.2766533 L138.721163,14.2766533 L138.721163,13.1415675 Z M140.999272,9.68868381 L142.459802,9.68868381 L142.459802,11.5302218 L140.999272,11.5302218 L140.999272,9.68868381 Z M155.342484,16.4912615 L155.342484,22 L153.874017,22 L153.874017,16.4912615 C153.874017,15.6921994 153.733786,15.1048181 153.45332,14.7291002 C153.172855,14.3533822 152.733642,14.1655261 152.135668,14.1655261 C151.453026,14.1655261 150.927822,14.4076224 150.560042,14.8918223 C150.192262,15.3760222 150.008374,16.0705608 150.008374,16.975459 L150.008374,22 L148.547844,22 L148.547844,13.1098168 L150.008374,13.1098168 L150.008374,14.4433443 C150.267673,13.9353313 150.619572,13.5503584 151.064084,13.2884142 C151.508595,13.02647 152.035122,12.8954999 152.643679,12.8954999 C153.548577,12.8954999 154.224595,13.1931593 154.671752,13.788487 C155.118909,14.3838148 155.342484,15.2847306 155.342484,16.4912615 Z M159.660428,9.64899549 L161.168584,9.64899549 L161.168584,16.8008304 L165.002475,13.1098168 L166.780512,13.1098168 L163.280002,16.4595108 L167.328211,22 L165.542236,22 L162.256044,17.4120305 L161.168584,18.4359891 L161.168584,22 L159.660428,22 L159.660428,9.64899549 Z" id="link" fill="#FFFFFF"></path>
            </g>
            <g id="icon">
                <path d="M180.487603,0.487603306 C80.6694215,-0.404958678 -0.404958678,80.6694215 0.487603306,180.487603 C1.38016529,277.479339 80.5206612,356.619835 177.512397,357.512397 C277.330579,358.404959 358.404959,277.330579 357.512397,177.512397 C356.619835,80.5206612 277.479339,1.38016529 180.487603,0.487603306 Z" id="Circle" fill="#333333" fill-rule="nonzero"></path>
                <path d="M169.902131,257.798028 C172.001609,258.924387 173.262308,261.012308 173.262308,261.012308 C166.362581,273.807813 153.035171,281.756682 138.477248,281.756682 C116.709889,281.756682 99,264.091312 99,242.378341 C99,220.665701 116.709889,203.000332 138.477248,203 C154.718105,203 169.109698,212.717164 175.144173,227.756471 C175.144173,227.756471 173.294546,229.519411 171.557966,230.212502 C169.821387,230.905594 166.766099,231.100271 166.766099,231.100271 C162.111169,219.498009 151.007933,212.000422 138.477248,212.000422 C121.686835,212.000422 108.023438,225.626486 108.023438,242.377677 C108.023438,259.129201 121.686835,272.755264 138.477248,272.755264 C149.708558,272.755264 159.991784,266.62181 165.316361,256.749351 C165.316361,256.749351 167.802652,256.67167 169.902131,257.798028 Z M187.270356,257.890001 C189.352213,256.773096 192.056427,256.749351 192.056427,256.749351 C197.381003,266.62181 207.664229,272.755264 218.89554,272.755264 C235.685953,272.755264 249.34935,259.129201 249.34935,242.377677 C249.34935,225.626486 235.685953,212.000422 218.89554,212.000422 C206.364854,212.000422 195.261618,219.498009 190.606689,231.100271 C190.606689,231.100271 187.866423,231.205553 185.729402,230.35264 C183.592382,229.499727 182.228614,227.756471 182.228614,227.756471 C188.26309,212.717164 202.654683,203 218.89554,203 C240.662898,203.000332 258.372788,220.665701 258.372788,242.378341 C258.372788,264.091312 240.662898,281.756682 218.89554,281.756682 C204.337616,281.756682 191.010207,273.807813 184.110479,261.012308 C184.110479,261.012308 185.1885,259.006905 187.270356,257.890001 Z M135.785552,239.921843 L136.244633,239 L222.022698,239 L222.421061,239.867968 C223.342884,241.876465 223.342123,245.128537 222.421061,247.135377 L222.022698,248.003345 L136.24431,248.003345 L135.785295,247.081501 C134.799374,245.101469 134.800956,241.898928 135.785552,239.921843 Z" id="Link" fill="#FFFFFF" fill-rule="nonzero"></path>
                <path d="M297.710744,190.900826 L63.5619835,190.900826 C63.2644628,190.900826 63.1157025,190.454545 63.4132231,190.305785 C71.1487603,186.289256 116.07438,164.123967 180.933884,164.123967 C245.942149,164.123967 290.272727,186.140496 297.859504,190.305785 C298.157025,190.454545 298.008264,190.900826 297.710744,190.900826 L297.710744,190.900826 Z M135.115702,88.2561983 C135.561983,86.9173554 136.603306,86.0247934 138.38843,86.4710744 C141.661157,87.214876 167.991736,92.8677686 167.991736,92.8677686 C167.991736,92.8677686 222.735537,84.5371901 224.669421,84.0909091 C226.305785,83.7933884 227.495868,84.6859504 227.793388,86.1735537 C227.942149,86.768595 237.165289,117.859504 245.198347,144.933884 L116.966942,144.933884 C125.297521,118.900826 134.520661,89.7438017 135.115702,88.2561983 Z" id="Hat" fill="#FFFFFF"></path>
            </g>
        </g>
    </g>
</svg>